<svg xmlns="http://www.w3.org/2000/svg" xmlns:xlink="http://www.w3.org/1999/xlink" viewBox="0 0 241.67 112.93"><defs><style>.cls-1{fill:none;}.cls-2{isolation:isolate;}.cls-3{fill:#ed2582;}.cls-14,.cls-17,.cls-18,.cls-4{fill:#231f20;}.cls-4,.cls-5{opacity:0.3;}.cls-10,.cls-14,.cls-18,.cls-4,.cls-5{mix-blend-mode:overlay;}.cls-10,.cls-5{fill:#fff;}.cls-6{fill:#e8e9e9;}.cls-7{fill:#bebfc2;}.cls-8{fill:#6cc4a0;}.cls-9{fill:url(#linear-gradient);}.cls-10{opacity:0.4;}.cls-11{fill:#d02c27;}.cls-11,.cls-14{opacity:0.5;}.cls-12{fill:#a9da0c;}.cls-13{fill:#65bc46;}.cls-15{fill:#dcddde;}.cls-16{fill:#a1a3a6;}.cls-17{opacity:0.2;mix-blend-mode:multiply;}.cls-18{opacity:0.1;}.cls-19{fill:#48373f;}.cls-20{mix-blend-mode:color-dodge;fill:url(#radial-gradient);}.cls-21{fill:#35111f;mix-blend-mode:soft-light;}.cls-22{clip-path:url(#clip-path);}.cls-23{fill:#ededee;}</style><linearGradient id="linear-gradient" x1="392.06" y1="-71.31" x2="531.56" y2="33.11" gradientTransform="translate(-314.35 1.27) rotate(14.47)" gradientUnits="userSpaceOnUse"><stop offset="0" stop-color="#fbaa19"/><stop offset="0.31" stop-color="#ee2424"/><stop offset="1" stop-color="#813092"/></linearGradient><radialGradient id="radial-gradient" cx="267.21" cy="112.61" r="95.03" gradientUnits="userSpaceOnUse"><stop offset="0.29" stop-color="#ec008c"/><stop offset="0.43" stop-color="#b3006a"/><stop offset="0.64" stop-color="#67003d"/><stop offset="0.81" stop-color="#2f001c"/><stop offset="0.93" stop-color="#0d0008"/><stop offset="1"/></radialGradient><clipPath id="clip-path" transform="translate(-16.29 -74.9)"><polygon class="cls-1" points="197.9 89.04 166.94 133.28 195.35 180.45 242.08 167.66 257.05 136.78 242.08 102.39 197.9 89.04"/></clipPath></defs><title>2012_2</title><g class="cls-2"><g id="Design"><polygon class="cls-3" points="167.76 85.28 128.22 26.5 18.75 43.79 92.31 90.26 167.76 85.28"/><polygon class="cls-4" points="18.75 43.79 167.76 85.28 92.31 90.26 18.75 43.79"/><polygon class="cls-5" points="128.22 26.5 18.75 43.79 146.07 53.04 128.22 26.5"/><polygon class="cls-6" points="147.15 73.08 101.48 49.07 24.16 96.75 100.88 95.27 147.15 73.08"/><polygon class="cls-7" points="24.16 96.75 147.15 73.08 100.88 95.27 24.16 96.75"/><polygon class="cls-5" points="101.48 49.07 24.16 96.75 122.1 59.91 101.48 49.07"/><polygon class="cls-8" points="196.86 56.7 185.03 17.35 114.77 0 149.88 41.22 196.86 56.7"/><polygon class="cls-4" points="114.77 0 196.86 56.7 149.88 41.22 114.77 0"/><polygon class="cls-5" points="185.03 17.35 114.77 0 190.37 35.12 185.03 17.35"/><polygon class="cls-9" points="0 65.47 179.06 105.56 181.61 14.14 0 65.47"/><polygon class="cls-5" points="118.33 75.85 0 65.47 181.61 14.14 118.33 75.85"/><polygon class="cls-10" points="0 65.47 152.88 42.46 181.61 14.14 0 65.47"/><polygon class="cls-11" points="179.06 105.56 118.33 75.85 181.61 14.14 179.06 105.56"/><polygon class="cls-12" points="119.34 52.11 150.33 26.22 44.62 24.1 119.34 52.11"/><polygon class="cls-13" points="44.62 24.1 93.34 49.47 119.34 52.11 44.62 24.1"/><polygon class="cls-5" points="150.33 26.22 44.62 24.1 134.94 39.08 150.33 26.22"/><polygon class="cls-14" points="119.34 52.11 46.76 64.86 93.34 49.47 119.34 52.11"/><polygon class="cls-15" points="140.36 45.75 122.74 61.67 97.27 46.6 140.36 45.75"/><polygon class="cls-16" points="122.74 61.67 108.73 61.25 97.27 46.6 122.74 61.67"/><polygon class="cls-5" points="97.27 46.6 130.81 54.67 140.36 45.75 97.27 46.6"/><polygon class="cls-14" points="122.74 61.67 88.99 68.89 108.73 61.25 122.74 61.67"/><polygon class="cls-17" points="108.52 83.43 97.75 87.2 111.07 90.18 108.52 83.43"/><polygon class="cls-8" points="122.96 83.85 108.52 83.43 70.74 112.93 150.34 96.16 122.96 83.85"/><polygon class="cls-5" points="70.74 112.93 108.52 83.43 122.96 83.85 70.74 112.93"/><polygon class="cls-4" points="70.74 112.93 136.12 89.8 150.34 96.16 70.74 112.93"/><polygon class="cls-18" points="118.33 75.85 145.06 88.92 179.37 94.44 181.21 28.42 148.55 46.39 118.33 75.85"/><polygon class="cls-19" points="181.61 14.14 150.66 58.38 179.06 105.56 225.79 92.77 240.76 61.88 225.79 27.5 181.61 14.14"/><polygon class="cls-20" points="181.61 14.14 150.66 58.38 179.06 105.56 225.79 92.77 240.76 61.88 225.79 27.5 181.61 14.14"/><polygon class="cls-21" points="181.61 14.14 181.14 14.66 136.54 67.83 179.06 105.56 150.66 58.38 181.61 14.14"/><g class="cls-22"><path class="cls-23" d="M171.1,106.39h10.26l12.09,30q1.17,3,2,5.18c.54,1.49,1,2.88,1.42,4.18q1.53-4.71,3.19-9.2c.14-.38.24-.63.3-.77L213.17,104l13.53,32.3c.64,1.56,1.25,3.13,1.81,4.7s1.1,3.14,1.6,4.74c.29-1.22.68-2.55,1.18-4s1.13-3.19,1.92-5.19l12-30.19h10.34L230.81,168l-14.58-33.83q-1-2.26-1.75-4.36c-.52-1.39-1-2.7-1.39-4-.5,1.6-1,3.09-1.49,4.48s-1,2.72-1.53,4L195.76,168Z" transform="translate(-16.29 -74.9)"/><path class="cls-23" d="M195.71,172.28l-27-67.51h13.75l12.5,31c.73,1.83,1.36,3.48,1.88,4.91.55-1.59,1.12-3.16,1.68-4.7.17-.43.28-.71.34-.85l14.3-35.31,15,35.93c.65,1.59,1.26,3.18,1.83,4.74.45-1.3,1-2.8,1.67-4.46l12.41-31.22H258l-27.09,67.48-16.12-37.42c-.58-1.37-1.12-2.7-1.6-4v0c-.5,1.42-1,2.79-1.56,4.07ZM213,120.55l1.59,4.83c.39,1.21.86,2.52,1.37,3.88s1.09,2.81,1.72,4.3l13,30.24L253.15,108h-6.84l-11.6,29.16c-.77,2-1.41,3.68-1.89,5.11s-.86,2.7-1.13,3.87l-1.38,5.74-1.75-5.64c-.49-1.57-1-3.14-1.57-4.67s-1.16-3.09-1.79-4.64l-12-28.65-11.36,28c-.06.16-.16.39-.29.74-1.08,2.94-2.15,6-3.16,9.12L196.83,151l-1.53-4.84c-.4-1.27-.87-2.65-1.39-4.1s-1.2-3.21-2-5.14L180.26,108H173.5l22.3,55.75,12.78-30.05c.5-1.22,1-2.54,1.49-3.9s1-2.84,1.47-4.42Z" transform="translate(-16.29 -74.9)"/></g><polygon class="cls-17" points="150.66 58.38 225.79 92.77 179.06 105.56 150.66 58.38"/><polygon class="cls-5" points="181.61 14.14 240.76 61.88 225.79 27.5 181.61 14.14"/></g></g></svg>